<?xml version="1.0" encoding="utf-8"?>
<!-- Generator: Adobe Illustrator 22.0.1, SVG Export Plug-In . SVG Version: 6.00 Build 0)  -->
<svg version="1.1"
	 id="svg2" inkscape:version="0.48.5 r10040" sodipodi:docname="New document 1" xmlns:cc="http://creativecommons.org/ns#" xmlns:dc="http://purl.org/dc/elements/1.1/" xmlns:inkscape="http://www.inkscape.org/namespaces/inkscape" xmlns:rdf="http://www.w3.org/1999/02/22-rdf-syntax-ns#" xmlns:sodipodi="http://sodipodi.sourceforge.net/DTD/sodipodi-0.dtd" xmlns:svg="http://www.w3.org/2000/svg"
	 xmlns="http://www.w3.org/2000/svg" xmlns:xlink="http://www.w3.org/1999/xlink" x="0px" y="0px" viewBox="0 0 1000 223.9"
	 style="enable-background:new 0 0 1000 223.9;" xml:space="preserve">
<sodipodi:namedview  bordercolor="#666666" borderopacity="1.0" fit-margin-bottom="0.5" fit-margin-left="0.5" fit-margin-right="0.5" fit-margin-top="0.5" id="base" inkscape:current-layer="layer1" inkscape:cx="646.97622" inkscape:cy="324.28975" inkscape:document-units="px" inkscape:pageopacity="0.0" inkscape:pageshadow="2" inkscape:window-height="1029" inkscape:window-maximized="0" inkscape:window-width="1053" inkscape:window-x="860" inkscape:window-y="-11" inkscape:zoom="0.20108349" pagecolor="#ffffff" showgrid="false">
	
		<inkscape:grid  empspacing="5" enabled="true" id="grid2996" originx="-61.564828px" originy="316.75543px" snapvisiblegridlinesonly="true" type="xygrid" visible="true">
		</inkscape:grid>
</sodipodi:namedview>
<g>
	<path id="path3037" inkscape:connector-curvature="0" sodipodi:nodetypes="cccc" d="M0.9,124.5V219h79.3L0.9,124.5z"/>
	<path id="path3039" inkscape:connector-curvature="0" sodipodi:nodetypes="ccccccccccc" d="M0.5,5l93.6,214H128l43.2-98.3V219h50.9
		V5h-56l-55.1,131.4L56.8,5H0.5z"/>
	<path id="path3041" inkscape:connector-curvature="0" d="M345.5,5.1c-62.7,0-110,47.7-110,108.1c0,57.1,44.9,105.9,111.1,105.9
		c69.6,0,109.8-54.1,109.8-106C456.4,52.1,408.3,5.1,345.5,5.1L345.5,5.1z M345.7,51.6c32.3,0,57.1,26.5,57.1,61
		c0,29.3-20.7,59.9-56.5,59.9c-34.1,0-57.2-27.5-57.2-59.8C289.1,78.6,313.5,51.6,345.7,51.6L345.7,51.6z"/>
	<path id="path3045" inkscape:connector-curvature="0" sodipodi:nodetypes="cccccccc" d="M441.6,5l70.5,214h55.4L637.3,5h-55.2
		l-42.7,149.4L497.6,5H441.6z"/>
	<path id="path3047" inkscape:connector-curvature="0" d="M647.6,5v214h52.5V5H647.6z"/>
	<path id="path3049" inkscape:connector-curvature="0" sodipodi:nodetypes="ccccccccccccc" d="M722.5,5v214h115.8v-48.3h-64.9v-36.2
		h63.2V86.1h-63.2V53.3h64.9V5L722.5,5z"/>
	<path id="path3051" inkscape:connector-curvature="0" sodipodi:nodetypes="ccccccccccccc" d="M850.2,147.2
		c0,42.5,21.1,71.9,77.8,71.9c48.3,0,71.5-27.3,71.5-63.2c0-64.2-92.4-61.3-92.4-90.1c0-10.2,7.1-16.3,18.5-16.3
		c11.2,0,18.4,10.7,18.4,20h53.7c0-46.8-39.2-64.5-70.3-64.5c-34.9,0-73.5,21.6-73.5,61.4c0,65.5,92.2,56.9,92.2,88.1
		c0,11.6-7.4,20.2-19.5,20.2c-16.8,0.2-22.8-15.2-22.8-27.6H850.2z"/>
</g>
</svg>
